<svg width="202" height="64" viewBox="0 0 202 64" fill="none" xmlns="http://www.w3.org/2000/svg">
<path d="M186.899 44.7301C186.1 44.9463 185.276 44.4733 185.06 43.6735L181.537 30.6414C181.321 29.8417 181.794 29.0181 182.593 28.8019C183.393 28.5857 184.217 29.0587 184.433 29.8585L187.564 41.4426L199.149 38.3109C199.948 38.0947 200.772 38.5678 200.988 39.3675C201.204 40.1672 200.731 40.9908 199.932 41.207L186.899 44.7301ZM-271.237 11.1081C-143.521 86.5751 -10.0249 60.6739 82.1369 32.5814C105.175 25.5589 125.594 18.4119 142.717 12.676C159.781 6.95958 173.671 2.60882 183.49 1.27888C188.38 0.616649 192.494 0.665561 195.544 1.8429C197.1 2.44376 198.408 3.34939 199.375 4.61924C200.341 5.88698 200.901 7.43006 201.105 9.20286C201.506 12.6884 200.546 17.2209 198.368 22.8706C196.175 28.5589 192.677 35.5526 187.809 44.0292L185.207 42.535C190.041 34.1195 193.455 27.2757 195.569 21.7914C197.698 16.2684 198.441 12.2931 198.125 9.54564C197.97 8.20195 197.568 7.1973 196.989 6.43726C196.411 5.67935 195.592 5.07719 194.464 4.64156C192.143 3.74587 188.655 3.6068 183.893 4.25173C174.41 5.53611 160.806 9.78036 143.67 15.5206C126.592 21.2414 106.102 28.4126 83.0116 35.4511C-9.34381 63.6026 -143.912 89.8286 -272.763 13.6909L-271.237 11.1081Z" fill="#8910F1"/>
</svg>
