<svg width="287" height="157" viewBox="0 0 287 157" fill="none" xmlns="http://www.w3.org/2000/svg">
<path d="M12.3459 44.2846C13.051 44.7195 13.9752 44.5005 14.4101 43.7954L21.4974 32.3055C21.9324 31.6004 21.7133 30.6762 21.0083 30.2413C20.3032 29.8064 19.379 30.0254 18.9441 30.7305L12.6442 40.9438L2.43093 34.6439C1.72585 34.209 0.80169 34.428 0.366774 35.1331C-0.0681313 35.8382 0.15088 36.7623 0.855957 37.1973L12.3459 44.2846ZM461.097 142.477C317.181 178.463 196.583 115.629 116.232 62.4626C96.1461 49.172 78.6073 36.508 63.8257 26.1348C49.0943 15.7969 37.018 7.67208 27.9836 3.60177C23.485 1.57501 19.5267 0.450554 16.2682 0.71102C14.6051 0.843926 13.0942 1.33997 11.8053 2.28187C10.5186 3.2222 9.54192 4.54186 8.84179 6.18326C7.46523 9.4104 7.09499 14.0287 7.5745 20.0646C8.05731 26.1418 9.41962 33.8419 11.6738 43.3539L14.593 42.6621C12.355 33.2187 11.0306 25.6862 10.5651 19.827C10.0963 13.9263 10.5162 9.90417 11.6013 7.3603C12.1319 6.11621 12.804 5.26777 13.5754 4.70401C14.3447 4.14185 15.3015 3.79785 16.5072 3.70147C18.9863 3.50332 22.3702 4.36317 26.7513 6.33699C35.4762 10.2679 47.3096 18.2094 62.1024 28.5905C76.845 38.9363 94.445 51.6437 114.577 64.9645C195.096 118.243 316.63 181.693 461.825 145.387L461.097 142.477Z" fill="#8910F1"/>
</svg>
