<svg width="303" height="192" viewBox="0 0 303 192" fill="none" xmlns="http://www.w3.org/2000/svg">
<path d="M280.191 190.451C280.547 191.199 281.441 191.517 282.19 191.162L294.383 185.369C295.132 185.013 295.45 184.118 295.095 183.37C294.739 182.622 293.844 182.303 293.096 182.659L282.257 187.809L277.108 176.97C276.752 176.221 275.857 175.903 275.109 176.259C274.361 176.614 274.042 177.509 274.398 178.257L280.191 190.451ZM0.999898 21.9997C1.48514 23.4191 1.48569 23.4189 1.48712 23.4184C1.48878 23.4178 1.4911 23.417 1.49442 23.4159C1.50105 23.4136 1.51123 23.4102 1.5249 23.4055C1.55224 23.3962 1.59359 23.3822 1.64868 23.3636C1.75885 23.3265 1.92396 23.271 2.14188 23.1985C2.57771 23.0535 3.22473 22.8403 4.06579 22.5687C5.74797 22.0257 8.2061 21.2494 11.3031 20.3189C17.4979 18.4577 26.2453 15.9806 36.4497 13.5189C56.8819 8.5897 83.0614 3.74551 106.269 3.98755C117.872 4.10857 128.65 5.50122 137.567 8.7377C146.469 11.9692 153.435 17.006 157.589 24.3826C161.745 31.7614 163.209 41.6958 160.682 54.9591C158.153 68.2346 151.642 84.7499 139.971 105.159L142.575 106.648C154.336 86.081 161.015 69.2423 163.629 55.5206C166.245 41.7866 164.805 31.0806 160.203 22.9105C155.601 14.7381 147.956 9.31748 138.59 5.91772C129.238 2.52299 118.088 1.11067 106.3 0.987714C82.7227 0.741811 56.2601 5.65366 35.7462 10.6025C25.4776 13.0798 16.6759 15.5722 10.4399 17.4458C7.32159 18.3827 4.8439 19.1651 3.14411 19.7138C2.29418 19.9882 1.63867 20.2042 1.19473 20.3519C0.972758 20.4258 0.803667 20.4826 0.689608 20.5211C0.63258 20.5403 0.589307 20.555 0.560056 20.5649C0.545435 20.5699 0.534316 20.5737 0.526735 20.5763C0.522947 20.5775 0.519926 20.5786 0.518026 20.5792C0.515895 20.5799 0.514654 20.5804 0.999898 21.9997ZM139.971 105.159C134.099 115.428 129.881 123.673 127.125 130.169C124.388 136.619 123.022 141.501 123.011 144.983C123.005 146.743 123.344 148.288 124.165 149.5C125.012 150.75 126.257 151.477 127.711 151.786C130.464 152.369 134.156 151.49 138.323 149.857C146.779 146.544 158.521 139.562 171.748 131.315C185.032 123.034 199.879 113.434 214.691 104.748C229.506 96.0595 244.187 88.3449 257.09 83.8312C270.089 79.2835 280.848 78.1444 288.129 81.9751C295.227 85.71 299.661 94.571 299.017 111.815C298.374 129.015 292.674 154.059 280.133 189.304L282.959 190.31C295.532 154.978 301.354 129.589 302.015 111.927C302.673 94.3097 298.191 83.8794 289.525 79.3201C281.042 74.8567 269.188 76.4205 256.099 80.9994C242.913 85.6123 228.029 93.4478 213.173 102.16C198.315 110.874 183.386 120.524 170.161 128.77C156.879 137.05 145.378 143.871 137.229 147.064C133.093 148.685 130.142 149.234 128.333 148.851C127.506 148.676 126.99 148.321 126.649 147.817C126.282 147.276 126.006 146.398 126.011 144.993C126.02 142.144 127.177 137.728 129.887 131.341C132.578 124.998 136.731 116.867 142.575 106.648L139.971 105.159Z" fill="#8910F1"/>
</svg>
