<svg width="475" height="64" viewBox="0 0 475 64" fill="none" xmlns="http://www.w3.org/2000/svg">
<path d="M459.899 19.1694C459.1 18.9532 458.276 19.4263 458.06 20.226L454.537 33.2582C454.321 34.0579 454.794 34.8815 455.593 35.0977C456.393 35.3138 457.217 34.8408 457.433 34.0411L460.564 22.4569L472.149 25.5886C472.948 25.8048 473.772 25.3318 473.988 24.532C474.204 23.7323 473.731 22.9088 472.932 22.6926L459.899 19.1694ZM1.76308 52.7914C129.479 -22.6755 262.975 3.2256 355.137 31.3181C378.175 38.3406 398.594 45.4877 415.717 51.2236C432.781 56.94 446.671 61.2907 456.49 62.6207C461.38 63.2829 465.494 63.234 468.544 62.0566C470.1 61.4558 471.408 60.5501 472.375 59.2803C473.341 58.0126 473.901 56.4695 474.105 54.6967C474.506 51.2112 473.546 46.6786 471.368 41.029C469.175 35.3406 465.677 28.3469 460.809 19.8703L458.207 21.3646C463.041 29.78 466.455 36.6238 468.569 42.1081C470.698 47.6311 471.441 51.6064 471.125 54.3539C470.97 55.6976 470.568 56.7022 469.989 57.4623C469.411 58.2202 468.592 58.8223 467.464 59.258C465.143 60.1537 461.655 60.2927 456.893 59.6478C447.41 58.3634 433.806 54.1192 416.67 48.3789C399.592 42.6582 379.102 35.4869 356.012 28.4484C263.656 0.296908 129.088 -25.929 0.236919 50.2086L1.76308 52.7914Z" fill="#F63C7C"/>
</svg>
