<svg width="400" height="287" viewBox="0 0 400 287" fill="none" xmlns="http://www.w3.org/2000/svg">
<path d="M1.10478 272.796C0.440132 273.291 0.302197 274.231 0.79669 274.895L8.85501 285.726C9.34951 286.391 10.2892 286.529 10.9538 286.035C11.6185 285.54 11.7564 284.6 11.2619 283.936L4.09899 274.308L13.7267 267.145C14.3913 266.651 14.5292 265.711 14.0347 265.046C13.5403 264.382 12.6006 264.244 11.9359 264.738L1.10478 272.796ZM396.541 0.652523C367.685 121.849 333.209 199.058 274.122 241.385C215.057 283.696 131.009 291.421 2.21802 272.516L1.78229 275.484C130.704 294.409 215.793 286.859 275.869 243.824C335.922 200.805 370.59 122.598 399.459 1.34738L396.541 0.652523Z" fill="#8910F1"/>
</svg>
